<mxfile host="app.diagrams.net" agent="Mozilla/5.0 (Macintosh; Intel Mac OS X 10_15_7) AppleWebKit/537.36 (KHTML, like Gecko) Chrome/133.0.0.0 Safari/537.36" version="26.1.0">
  <diagram id="C5RBs43oDa-KdzZeNtuy" name="Page-1">
    <mxGraphModel dx="1147" dy="1309" grid="1" gridSize="10" guides="1" tooltips="1" connect="1" arrows="1" fold="1" page="1" pageScale="1" pageWidth="827" pageHeight="1169" math="0" shadow="0">
      <root>
        <mxCell id="WIyWlLk6GJQsqaUBKTNV-0" />
        <mxCell id="WIyWlLk6GJQsqaUBKTNV-1" parent="WIyWlLk6GJQsqaUBKTNV-0" />
        <mxCell id="WIyWlLk6GJQsqaUBKTNV-10" value="Levia AI Agent&amp;nbsp;&lt;div&gt;(Tool Agent)&lt;/div&gt;" style="rhombus;whiteSpace=wrap;html=1;shadow=0;fontFamily=Helvetica;fontSize=12;align=center;strokeWidth=1;spacing=6;spacingTop=-4;fontStyle=1;fillColor=#e1d5e7;strokeColor=#9673a6;" parent="WIyWlLk6GJQsqaUBKTNV-1" vertex="1">
          <mxGeometry x="725" y="405" width="200" height="150" as="geometry" />
        </mxCell>
        <mxCell id="9u0iqup7fmXd1eoLOnOw-0" value="Memory&lt;div&gt;&lt;span style=&quot;font-weight: normal;&quot;&gt;(Levia/Csv Repository)&lt;/span&gt;&lt;/div&gt;" style="rounded=1;whiteSpace=wrap;html=1;fontSize=12;glass=0;strokeWidth=1;shadow=0;fontStyle=1;fillColor=#fff2cc;strokeColor=#d6b656;" vertex="1" parent="WIyWlLk6GJQsqaUBKTNV-1">
          <mxGeometry x="275" y="530" width="120" height="56" as="geometry" />
        </mxCell>
        <mxCell id="9u0iqup7fmXd1eoLOnOw-1" value="Aggregate&lt;div&gt;&lt;span style=&quot;font-weight: normal;&quot;&gt;(Recall past prompts, sentiment, and context)&lt;/span&gt;&lt;/div&gt;" style="rounded=1;whiteSpace=wrap;html=1;fontSize=12;glass=0;strokeWidth=1;shadow=0;fontStyle=1;fillColor=#fff2cc;strokeColor=#d6b656;" vertex="1" parent="WIyWlLk6GJQsqaUBKTNV-1">
          <mxGeometry x="419" y="530" width="120" height="56" as="geometry" />
        </mxCell>
        <mxCell id="9u0iqup7fmXd1eoLOnOw-2" value="Merge&lt;div&gt;&lt;span style=&quot;font-weight: normal;&quot;&gt;(Memory Pool with immediate input)&lt;/span&gt;&lt;/div&gt;" style="rounded=1;whiteSpace=wrap;html=1;fontSize=12;glass=0;strokeWidth=1;shadow=0;fontStyle=1;fillColor=#fff2cc;strokeColor=#d6b656;" vertex="1" parent="WIyWlLk6GJQsqaUBKTNV-1">
          <mxGeometry x="505" y="455" width="120" height="50" as="geometry" />
        </mxCell>
        <mxCell id="9u0iqup7fmXd1eoLOnOw-15" value="" style="endArrow=classic;html=1;rounded=0;exitX=1;exitY=0.5;exitDx=0;exitDy=0;fontStyle=1" edge="1" parent="WIyWlLk6GJQsqaUBKTNV-1" source="9u0iqup7fmXd1eoLOnOw-2">
          <mxGeometry width="50" height="50" relative="1" as="geometry">
            <mxPoint x="695" y="530" as="sourcePoint" />
            <mxPoint x="735" y="480" as="targetPoint" />
          </mxGeometry>
        </mxCell>
        <mxCell id="9u0iqup7fmXd1eoLOnOw-17" value="" style="endArrow=classic;html=1;rounded=0;exitX=1;exitY=0.5;exitDx=0;exitDy=0;entryX=0;entryY=0.5;entryDx=0;entryDy=0;fontStyle=1" edge="1" parent="WIyWlLk6GJQsqaUBKTNV-1" target="9u0iqup7fmXd1eoLOnOw-2">
          <mxGeometry width="50" height="50" relative="1" as="geometry">
            <mxPoint x="255" y="480" as="sourcePoint" />
            <mxPoint x="495" y="480" as="targetPoint" />
          </mxGeometry>
        </mxCell>
        <mxCell id="9u0iqup7fmXd1eoLOnOw-19" value="" style="endArrow=classic;html=1;rounded=0;exitX=1;exitY=0.5;exitDx=0;exitDy=0;entryX=0.5;entryY=1;entryDx=0;entryDy=0;fontStyle=1" edge="1" parent="WIyWlLk6GJQsqaUBKTNV-1" source="9u0iqup7fmXd1eoLOnOw-1" target="9u0iqup7fmXd1eoLOnOw-2">
          <mxGeometry width="50" height="50" relative="1" as="geometry">
            <mxPoint x="265" y="490" as="sourcePoint" />
            <mxPoint x="515" y="490" as="targetPoint" />
          </mxGeometry>
        </mxCell>
        <mxCell id="9u0iqup7fmXd1eoLOnOw-21" value="" style="endArrow=classic;html=1;rounded=0;exitX=0.5;exitY=1;exitDx=0;exitDy=0;entryX=0;entryY=0.5;entryDx=0;entryDy=0;fontStyle=1" edge="1" parent="WIyWlLk6GJQsqaUBKTNV-1" target="9u0iqup7fmXd1eoLOnOw-0">
          <mxGeometry width="50" height="50" relative="1" as="geometry">
            <mxPoint x="225" y="500" as="sourcePoint" />
            <mxPoint x="365" y="610" as="targetPoint" />
          </mxGeometry>
        </mxCell>
        <mxCell id="9u0iqup7fmXd1eoLOnOw-23" value="" style="endArrow=classic;startArrow=classic;html=1;rounded=0;entryX=0;entryY=1;entryDx=0;entryDy=0;fontStyle=1" edge="1" parent="WIyWlLk6GJQsqaUBKTNV-1" target="WIyWlLk6GJQsqaUBKTNV-10">
          <mxGeometry width="50" height="50" relative="1" as="geometry">
            <mxPoint x="685" y="600" as="sourcePoint" />
            <mxPoint x="745" y="710" as="targetPoint" />
          </mxGeometry>
        </mxCell>
        <mxCell id="9u0iqup7fmXd1eoLOnOw-24" value="" style="endArrow=classic;startArrow=classic;html=1;rounded=0;entryX=1;entryY=1;entryDx=0;entryDy=0;fontStyle=1" edge="1" parent="WIyWlLk6GJQsqaUBKTNV-1" target="WIyWlLk6GJQsqaUBKTNV-10">
          <mxGeometry width="50" height="50" relative="1" as="geometry">
            <mxPoint x="955" y="600" as="sourcePoint" />
            <mxPoint x="793" y="528" as="targetPoint" />
          </mxGeometry>
        </mxCell>
        <mxCell id="9u0iqup7fmXd1eoLOnOw-25" value="" style="endArrow=classic;startArrow=classic;html=1;rounded=0;entryX=0.5;entryY=1;entryDx=0;entryDy=0;fontStyle=1" edge="1" parent="WIyWlLk6GJQsqaUBKTNV-1" source="9u0iqup7fmXd1eoLOnOw-72" target="WIyWlLk6GJQsqaUBKTNV-10">
          <mxGeometry width="50" height="50" relative="1" as="geometry">
            <mxPoint x="825" y="670" as="sourcePoint" />
            <mxPoint x="885" y="710" as="targetPoint" />
          </mxGeometry>
        </mxCell>
        <mxCell id="9u0iqup7fmXd1eoLOnOw-26" value="" style="rounded=1;whiteSpace=wrap;html=1;fontStyle=1;fillColor=#d5e8d4;strokeColor=#82b366;" vertex="1" parent="WIyWlLk6GJQsqaUBKTNV-1">
          <mxGeometry x="645" y="680" width="360" height="180" as="geometry" />
        </mxCell>
        <mxCell id="9u0iqup7fmXd1eoLOnOw-31" value="Memory&lt;div&gt;&lt;span style=&quot;font-weight: normal;&quot;&gt;(Levia/Csv repository)&lt;/span&gt;&lt;/div&gt;" style="rounded=1;whiteSpace=wrap;html=1;fontSize=12;glass=0;strokeWidth=1;shadow=0;fontStyle=1;fillColor=#fff2cc;strokeColor=#d6b656;" vertex="1" parent="WIyWlLk6GJQsqaUBKTNV-1">
          <mxGeometry x="895" y="600" width="120" height="50" as="geometry" />
        </mxCell>
        <mxCell id="9u0iqup7fmXd1eoLOnOw-33" value="Deepseek R-1&lt;div&gt;Model&lt;/div&gt;" style="rounded=1;whiteSpace=wrap;html=1;fontSize=12;glass=0;strokeWidth=1;shadow=0;fontStyle=1;fillColor=#e1d5e7;strokeColor=#9673a6;" vertex="1" parent="WIyWlLk6GJQsqaUBKTNV-1">
          <mxGeometry x="625" y="600" width="120" height="50" as="geometry" />
        </mxCell>
        <mxCell id="9u0iqup7fmXd1eoLOnOw-35" value="&lt;b&gt;Tool API Calls&lt;/b&gt;" style="text;strokeColor=none;align=center;fillColor=none;html=1;verticalAlign=middle;whiteSpace=wrap;rounded=0;" vertex="1" parent="WIyWlLk6GJQsqaUBKTNV-1">
          <mxGeometry x="775" y="690" width="100" height="30" as="geometry" />
        </mxCell>
        <mxCell id="9u0iqup7fmXd1eoLOnOw-39" value="Telegram" style="triangle;whiteSpace=wrap;html=1;fontStyle=1;fillColor=#dae8fc;strokeColor=#6c8ebf;" vertex="1" parent="WIyWlLk6GJQsqaUBKTNV-1">
          <mxGeometry x="1045" y="430" width="70" height="100" as="geometry" />
        </mxCell>
        <mxCell id="9u0iqup7fmXd1eoLOnOw-40" value="" style="endArrow=classic;html=1;rounded=0;fontStyle=1;entryX=0;entryY=0.5;entryDx=0;entryDy=0;" edge="1" parent="WIyWlLk6GJQsqaUBKTNV-1" target="9u0iqup7fmXd1eoLOnOw-39">
          <mxGeometry width="50" height="50" relative="1" as="geometry">
            <mxPoint x="925" y="480" as="sourcePoint" />
            <mxPoint x="745" y="490" as="targetPoint" />
          </mxGeometry>
        </mxCell>
        <mxCell id="9u0iqup7fmXd1eoLOnOw-41" value="Telegram" style="triangle;whiteSpace=wrap;html=1;fontStyle=1;fillColor=#dae8fc;strokeColor=#6c8ebf;" vertex="1" parent="WIyWlLk6GJQsqaUBKTNV-1">
          <mxGeometry x="185" y="430" width="70" height="100" as="geometry" />
        </mxCell>
        <mxCell id="9u0iqup7fmXd1eoLOnOw-43" value="Input: Godmother Chatbot" style="swimlane;fontStyle=0;childLayout=stackLayout;horizontal=1;startSize=30;horizontalStack=0;resizeParent=1;resizeParentMax=0;resizeLast=0;collapsible=1;marginBottom=0;whiteSpace=wrap;html=1;fillColor=#dae8fc;strokeColor=#6c8ebf;" vertex="1" parent="WIyWlLk6GJQsqaUBKTNV-1">
          <mxGeometry x="150" y="280" width="140" height="120" as="geometry" />
        </mxCell>
        <mxCell id="9u0iqup7fmXd1eoLOnOw-44" value="Text-based prompt" style="text;strokeColor=none;fillColor=none;align=left;verticalAlign=middle;spacingLeft=4;spacingRight=4;overflow=hidden;points=[[0,0.5],[1,0.5]];portConstraint=eastwest;rotatable=0;whiteSpace=wrap;html=1;" vertex="1" parent="9u0iqup7fmXd1eoLOnOw-43">
          <mxGeometry y="30" width="140" height="30" as="geometry" />
        </mxCell>
        <mxCell id="9u0iqup7fmXd1eoLOnOw-45" value="Voice Recordings" style="text;strokeColor=none;fillColor=none;align=left;verticalAlign=middle;spacingLeft=4;spacingRight=4;overflow=hidden;points=[[0,0.5],[1,0.5]];portConstraint=eastwest;rotatable=0;whiteSpace=wrap;html=1;" vertex="1" parent="9u0iqup7fmXd1eoLOnOw-43">
          <mxGeometry y="60" width="140" height="30" as="geometry" />
        </mxCell>
        <mxCell id="9u0iqup7fmXd1eoLOnOw-46" value="Images" style="text;strokeColor=none;fillColor=none;align=left;verticalAlign=middle;spacingLeft=4;spacingRight=4;overflow=hidden;points=[[0,0.5],[1,0.5]];portConstraint=eastwest;rotatable=0;whiteSpace=wrap;html=1;" vertex="1" parent="9u0iqup7fmXd1eoLOnOw-43">
          <mxGeometry y="90" width="140" height="30" as="geometry" />
        </mxCell>
        <mxCell id="9u0iqup7fmXd1eoLOnOw-48" value="&lt;b&gt;Output: Godmother Chatbot&lt;/b&gt;" style="swimlane;fontStyle=0;childLayout=stackLayout;horizontal=1;startSize=30;horizontalStack=0;resizeParent=1;resizeParentMax=0;resizeLast=0;collapsible=1;marginBottom=0;whiteSpace=wrap;html=1;fillColor=#dae8fc;strokeColor=#6c8ebf;" vertex="1" parent="WIyWlLk6GJQsqaUBKTNV-1">
          <mxGeometry x="1005" y="280" width="140" height="140" as="geometry" />
        </mxCell>
        <mxCell id="9u0iqup7fmXd1eoLOnOw-49" value="Text-based output:&lt;div&gt;1) Reminder&lt;/div&gt;&lt;div&gt;2) Suggestion&lt;/div&gt;&lt;div&gt;3) User Action: Authentication (for task execution)&lt;/div&gt;" style="text;strokeColor=none;fillColor=none;align=left;verticalAlign=middle;spacingLeft=4;spacingRight=4;overflow=hidden;points=[[0,0.5],[1,0.5]];portConstraint=eastwest;rotatable=0;whiteSpace=wrap;html=1;" vertex="1" parent="9u0iqup7fmXd1eoLOnOw-48">
          <mxGeometry y="30" width="140" height="110" as="geometry" />
        </mxCell>
        <mxCell id="9u0iqup7fmXd1eoLOnOw-54" value="" style="endArrow=classic;html=1;rounded=0;entryX=0;entryY=0.5;entryDx=0;entryDy=0;exitX=1;exitY=0.5;exitDx=0;exitDy=0;" edge="1" parent="WIyWlLk6GJQsqaUBKTNV-1" source="9u0iqup7fmXd1eoLOnOw-0" target="9u0iqup7fmXd1eoLOnOw-1">
          <mxGeometry width="50" height="50" relative="1" as="geometry">
            <mxPoint x="335" y="610" as="sourcePoint" />
            <mxPoint x="385" y="560" as="targetPoint" />
          </mxGeometry>
        </mxCell>
        <mxCell id="9u0iqup7fmXd1eoLOnOw-57" value="" style="endArrow=classic;startArrow=classic;html=1;rounded=0;exitX=0.5;exitY=1;exitDx=0;exitDy=0;entryX=1;entryY=0.5;entryDx=0;entryDy=0;" edge="1" parent="WIyWlLk6GJQsqaUBKTNV-1" source="9u0iqup7fmXd1eoLOnOw-0" target="9u0iqup7fmXd1eoLOnOw-31">
          <mxGeometry width="50" height="50" relative="1" as="geometry">
            <mxPoint x="625" y="810" as="sourcePoint" />
            <mxPoint x="1085" y="920" as="targetPoint" />
            <Array as="points">
              <mxPoint x="335" y="920" />
              <mxPoint x="705" y="920" />
              <mxPoint x="1075" y="920" />
              <mxPoint x="1075" y="770" />
              <mxPoint x="1075" y="625" />
            </Array>
          </mxGeometry>
        </mxCell>
        <mxCell id="9u0iqup7fmXd1eoLOnOw-60" value="Google Calendar" style="swimlane;fontStyle=0;childLayout=stackLayout;horizontal=1;startSize=30;horizontalStack=0;resizeParent=1;resizeParentMax=0;resizeLast=0;collapsible=1;marginBottom=0;whiteSpace=wrap;html=1;fillColor=#dae8fc;strokeColor=#6c8ebf;" vertex="1" parent="WIyWlLk6GJQsqaUBKTNV-1">
          <mxGeometry x="665" y="720" width="100" height="120" as="geometry" />
        </mxCell>
        <mxCell id="9u0iqup7fmXd1eoLOnOw-63" value="1) Retrieve calendar data&lt;div&gt;2) Execute scheduling&lt;/div&gt;" style="text;strokeColor=none;fillColor=none;align=left;verticalAlign=middle;spacingLeft=4;spacingRight=4;overflow=hidden;points=[[0,0.5],[1,0.5]];portConstraint=eastwest;rotatable=0;whiteSpace=wrap;html=1;" vertex="1" parent="9u0iqup7fmXd1eoLOnOw-60">
          <mxGeometry y="30" width="100" height="90" as="geometry" />
        </mxCell>
        <mxCell id="9u0iqup7fmXd1eoLOnOw-64" value="Google Contacts" style="swimlane;fontStyle=0;childLayout=stackLayout;horizontal=1;startSize=30;horizontalStack=0;resizeParent=1;resizeParentMax=0;resizeLast=0;collapsible=1;marginBottom=0;whiteSpace=wrap;html=1;fillColor=#dae8fc;strokeColor=#6c8ebf;" vertex="1" parent="WIyWlLk6GJQsqaUBKTNV-1">
          <mxGeometry x="775" y="720" width="100" height="120" as="geometry" />
        </mxCell>
        <mxCell id="9u0iqup7fmXd1eoLOnOw-67" value="1) Retrieve contact data&lt;div&gt;2) Store contact data&lt;/div&gt;" style="text;strokeColor=none;fillColor=none;align=left;verticalAlign=middle;spacingLeft=4;spacingRight=4;overflow=hidden;points=[[0,0.5],[1,0.5]];portConstraint=eastwest;rotatable=0;whiteSpace=wrap;html=1;" vertex="1" parent="9u0iqup7fmXd1eoLOnOw-64">
          <mxGeometry y="30" width="100" height="90" as="geometry" />
        </mxCell>
        <mxCell id="9u0iqup7fmXd1eoLOnOw-68" value="Gmail" style="swimlane;fontStyle=0;childLayout=stackLayout;horizontal=1;startSize=30;horizontalStack=0;resizeParent=1;resizeParentMax=0;resizeLast=0;collapsible=1;marginBottom=0;whiteSpace=wrap;html=1;fillColor=#dae8fc;strokeColor=#6c8ebf;" vertex="1" parent="WIyWlLk6GJQsqaUBKTNV-1">
          <mxGeometry x="885" y="720" width="100" height="120" as="geometry" />
        </mxCell>
        <mxCell id="9u0iqup7fmXd1eoLOnOw-69" value="1) Retrieve emails" style="text;strokeColor=none;fillColor=none;align=left;verticalAlign=middle;spacingLeft=4;spacingRight=4;overflow=hidden;points=[[0,0.5],[1,0.5]];portConstraint=eastwest;rotatable=0;whiteSpace=wrap;html=1;" vertex="1" parent="9u0iqup7fmXd1eoLOnOw-68">
          <mxGeometry y="30" width="100" height="30" as="geometry" />
        </mxCell>
        <mxCell id="9u0iqup7fmXd1eoLOnOw-70" value="2) Execute writing and sending emails" style="text;strokeColor=none;fillColor=none;align=left;verticalAlign=middle;spacingLeft=4;spacingRight=4;overflow=hidden;points=[[0,0.5],[1,0.5]];portConstraint=eastwest;rotatable=0;whiteSpace=wrap;html=1;" vertex="1" parent="9u0iqup7fmXd1eoLOnOw-68">
          <mxGeometry y="60" width="100" height="60" as="geometry" />
        </mxCell>
        <mxCell id="9u0iqup7fmXd1eoLOnOw-73" value="" style="endArrow=classic;startArrow=classic;html=1;rounded=0;entryX=0.5;entryY=1;entryDx=0;entryDy=0;fontStyle=1" edge="1" parent="WIyWlLk6GJQsqaUBKTNV-1" source="9u0iqup7fmXd1eoLOnOw-26" target="9u0iqup7fmXd1eoLOnOw-72">
          <mxGeometry width="50" height="50" relative="1" as="geometry">
            <mxPoint x="825" y="680" as="sourcePoint" />
            <mxPoint x="825" y="555" as="targetPoint" />
          </mxGeometry>
        </mxCell>
        <mxCell id="9u0iqup7fmXd1eoLOnOw-72" value="Auth" style="rhombus;whiteSpace=wrap;html=1;shadow=0;fontFamily=Helvetica;fontSize=12;align=center;strokeWidth=1;spacing=6;spacingTop=-4;fontStyle=1;fillColor=#e1d5e7;strokeColor=#9673a6;" vertex="1" parent="WIyWlLk6GJQsqaUBKTNV-1">
          <mxGeometry x="792.5" y="584" width="65" height="60" as="geometry" />
        </mxCell>
      </root>
    </mxGraphModel>
  </diagram>
</mxfile>
